<?xml version="1.0" encoding="UTF-8"?>
<svg width="512px" height="512px" viewBox="0 0 512 512" version="1.1" xmlns="http://www.w3.org/2000/svg" xmlns:xlink="http://www.w3.org/1999/xlink">
    <!-- Generator: Sketch 56.2 (81672) - https://sketch.com -->
    <title>AppIcon</title>
    <desc>Created with Sketch.</desc>
    <defs>
        <linearGradient x1="50%" y1="17.2371032%" x2="50%" y2="100%" id="linearGradient-1">
            <stop stop-color="#FC3F2C" offset="0%"></stop>
            <stop stop-color="#FF6C27" offset="100%"></stop>
        </linearGradient>
        <filter x="-3.9%" y="-3.9%" width="107.8%" height="107.8%" filterUnits="objectBoundingBox" id="filter-2">
            <feOffset dx="0" dy="2" in="SourceAlpha" result="shadowOffsetOuter1"></feOffset>
            <feGaussianBlur stdDeviation="3" in="shadowOffsetOuter1" result="shadowBlurOuter1"></feGaussianBlur>
            <feColorMatrix values="0 0 0 0 0   0 0 0 0 0   0 0 0 0 0  0 0 0 0.5 0" type="matrix" in="shadowBlurOuter1" result="shadowMatrixOuter1"></feColorMatrix>
            <feMerge>
                <feMergeNode in="shadowMatrixOuter1"></feMergeNode>
                <feMergeNode in="SourceGraphic"></feMergeNode>
            </feMerge>
        </filter>
        <polygon id="path-3" points="0 0.624954983 411.377734 0.624954983 411.377734 411.665928 0 411.665928"></polygon>
        <linearGradient x1="50%" y1="0%" x2="50%" y2="100%" id="linearGradient-5">
            <stop stop-color="#FDFBFA" offset="0%"></stop>
            <stop stop-color="#DEDEDE" offset="100%"></stop>
        </linearGradient>
    </defs>
    <g id="AppIcon" stroke="none" stroke-width="1" fill="none" fill-rule="evenodd">
        <g id="lite" transform="translate(50.000000, 50.000000)">
            <rect id="Rectangle" fill="url(#linearGradient-1)" fill-rule="nonzero" x="43" y="32" width="331" height="342"></rect>
            <g id="Group-16-Copy">
                <path d="M207.329032,307.344053 C199.267097,307.344053 192.709677,313.878272 192.709677,321.911684 C192.709677,329.945096 199.267097,336.488746 207.329032,336.488746 C215.390968,336.488746 221.948387,329.945096 221.948387,321.911684 C221.948387,313.878272 215.390968,307.344053 207.329032,307.344053" id="Fill-1" fill="#FFFFFF" fill-rule="nonzero"></path>
                <path d="M242.343092,119.900369 L228.986596,133.152112 C226.69049,135.43021 226.69049,139.104248 228.986596,141.372652 C231.272931,143.641056 234.976012,143.641056 237.262347,141.372652 L254.781146,124.000945 C257.077252,121.732541 257.077252,118.048809 254.781146,115.780405 L237.262347,98.4086983 C234.985783,96.1402946 231.272931,96.1402946 228.986596,98.4086983 C226.69049,100.686796 226.69049,104.360834 228.986596,106.638932 L242.343092,119.900369 Z" id="Fill-3" fill="#FFFFFF" fill-rule="nonzero"></path>
                <path d="M94.3660199,307.344053 C86.2972335,307.344053 79.7419354,313.878272 79.7419354,321.911684 C79.7419354,329.945096 86.2972335,336.488746 94.3660199,336.488746 C102.434806,336.488746 108.980645,329.945096 108.980645,321.911684 C108.980645,313.878272 102.434806,307.344053 94.3660199,307.344053" id="Fill-5" fill="#FFFFFF" fill-rule="nonzero"></path>
                <path d="M187.007543,98.4086983 C184.720825,96.1402946 180.997581,96.1402946 178.701091,98.4086983 L161.198909,115.780405 C158.912192,118.048809 158.912192,121.732541 161.198909,124.000945 L178.701091,141.372652 C181.007353,143.641056 184.720825,143.641056 187.007543,141.372652 C189.284488,139.104248 189.284488,135.420516 186.99777,133.152112 L173.639042,119.900369 L187.007543,106.638932 C189.29426,104.360834 189.29426,100.677102 187.007543,98.4086983" id="Fill-7" fill="#FFFFFF" fill-rule="nonzero"></path>
                <path d="M223.15722,79.711397 C220.12067,78.8287786 217.008677,80.6132029 216.159951,83.6639935 L195.583077,156.940525 C194.734351,159.991315 196.469523,163.176417 199.468353,164.059036 C200.005879,164.212534 200.524544,164.270096 201.033779,164.270096 C203.504513,164.270096 205.767781,162.629577 206.465622,160.106439 L227.042497,86.829908 C227.910082,83.7791177 226.15605,80.5940156 223.15722,79.711397" id="Fill-9" fill="#FFFFFF" fill-rule="nonzero"></path>
                <path d="M322.959568,307.344053 C314.890781,307.344053 308.335485,313.878272 308.335485,321.911684 C308.335485,329.945096 314.890781,336.488746 322.959568,336.488746 C331.018895,336.488746 337.574192,329.945096 337.574192,321.911684 C337.574192,313.878272 331.018895,307.344053 322.959568,307.344053" id="Fill-11" fill="#FFFFFF" fill-rule="nonzero"></path>
                <g id="Group-15" filter="url(#filter-2)">
                    <g id="Fill-13-Clipped">
                        <mask id="mask-4" fill="white">
                            <use xlink:href="#path-3"></use>
                        </mask>
                        <g id="path-2"></g>
                        <path d="M322.396646,366.380704 C298.250541,366.380704 278.699116,346.835543 278.699116,322.71864 C278.699116,302.626021 292.358198,285.885377 310.852268,280.804596 L310.852268,255.150971 C310.852268,252.500128 308.689501,250.34872 306.046117,250.34872 L223.611006,250.34872 L223.611006,282.254874 C239.682777,288.699494 251.054132,304.354833 251.054132,322.71864 C251.054132,346.835543 231.493095,366.380704 207.366214,366.380704 C183.239333,366.380704 163.678297,346.835543 163.678297,322.71864 C163.678297,303.615285 176.039719,287.546954 193.15923,281.630583 L193.15923,250.34872 L113.800056,250.34872 C111.14706,250.34872 108.993904,252.500128 108.993904,255.150971 L108.993904,281.75544 C125.901946,287.787066 138.061509,303.759355 138.061509,322.71864 C138.061509,346.835543 118.510085,366.380704 94.3735917,366.380704 C70.246711,366.380704 50.6760618,346.835543 50.6760618,322.71864 C50.6760618,303.615285 63.0567082,287.546954 80.1569953,281.630583 L80.1569953,255.150971 C80.1569953,236.614283 95.2483111,221.535215 113.800056,221.535215 L193.15923,221.535215 L193.15923,191.56917 C160.583135,184.577093 136.158273,155.677148 136.158273,121.03371 C136.158273,81.1846331 168.484448,48.8654852 208.385118,48.8654852 C248.276176,48.8654852 280.602352,81.1846331 280.602352,121.03371 C280.602352,155.677148 256.177489,184.577093 223.611006,191.56917 L223.611006,221.535215 L306.046117,221.535215 C324.597862,221.535215 339.689178,236.614283 339.689178,255.150971 L339.689178,282.658262 C355.213048,289.352601 366.084562,304.758221 366.084562,322.71864 C366.084562,346.835543 346.523526,366.380704 322.396646,366.380704 L322.396646,366.380704 Z M70.5446921,0.622073634 C31.586028,0.622073634 0,32.182466 0,71.1095108 L0,341.178493 C0,380.115141 31.586028,411.665928 70.5446921,411.665928 L340.833042,411.665928 C379.801319,411.665928 411.387348,380.115141 411.387348,341.178493 L411.387348,71.1095108 C411.387348,32.182466 379.801319,0.622073634 340.833042,0.622073634 L70.5446921,0.622073634 Z" id="Fill-13" fill="url(#linearGradient-5)" fill-rule="nonzero" mask="url(#mask-4)"></path>
                    </g>
                </g>
            </g>
        </g>
    </g>
</svg>